<?xml version="1.0" encoding="UTF-8"?>
<svg id="Layer_1" data-name="Layer 1" xmlns="http://www.w3.org/2000/svg" viewBox="0 0 362 135">
  <defs>
    <style>
      .cls-1 {
        fill: #812a54;
      }

      .cls-1, .cls-2 {
        stroke-width: 0px;
      }

      .cls-2 {
        fill: #aacef5;
      }
    </style>
  </defs>
  <g>
    <g>
      <path class="cls-1" d="M195.73,100.39c-6.46,0-12.41-1.06-17.84-3.17-5.43-2.11-10.16-5.13-14.19-9.04-4.03-3.91-7.16-8.46-9.4-13.65-2.23-5.19-3.35-10.93-3.35-17.24s1.12-12.05,3.35-17.24c2.23-5.19,5.39-9.74,9.46-13.65,4.07-3.91,8.82-6.92,14.25-9.04,5.43-2.11,11.37-3.17,17.84-3.17,6.86,0,13.13,1.18,18.8,3.53,5.67,2.36,10.46,5.85,14.37,10.48l-10.06,9.46c-3.11-3.27-6.55-5.73-10.3-7.36-3.75-1.64-7.78-2.45-12.09-2.45s-8.4.72-12.03,2.15c-3.63,1.44-6.79,3.47-9.46,6.11-2.67,2.63-4.77,5.75-6.28,9.34-1.52,3.59-2.28,7.54-2.28,11.85s.76,8.26,2.28,11.85c1.52,3.59,3.61,6.7,6.28,9.34,2.67,2.63,5.83,4.67,9.46,6.11,3.63,1.44,7.64,2.16,12.03,2.16s8.34-.82,12.09-2.45c3.75-1.64,7.18-4.13,10.3-7.48l10.06,9.46c-3.91,4.63-8.7,8.14-14.37,10.54-5.67,2.39-11.97,3.59-18.92,3.59Z"/>
      <path class="cls-1" d="M268.77,99.19L232.13,15.38h16.88l32.69,75.79h-9.82l33.28-75.79h15.44l-36.52,83.81h-15.32Z"/>
      <path class="cls-1" d="M331.26,99.19V15.38h15.56v83.81h-15.56Z"/>
    </g>
    <g>
      <path class="cls-1" d="M154.65,120.82c-.79,0-1.47-.15-2.01-.44-.55-.3-.96-.74-1.25-1.34s-.43-1.35-.43-2.25c0-1.35.33-2.35.98-3.02.65-.67,1.56-1,2.73-1,.67,0,1.27.11,1.78.32s.91.54,1.2.96.44.97.44,1.63h-.91c0-.49-.1-.89-.31-1.21s-.49-.55-.87-.7c-.37-.15-.82-.23-1.34-.23-.56,0-1.05.11-1.46.33-.42.22-.74.56-.96,1.03-.23.47-.34,1.07-.34,1.82v.24c0,.73.11,1.33.34,1.78s.55.79.96,1c.42.21.91.32,1.48.32.52,0,.97-.08,1.35-.23s.67-.39.87-.7c.2-.31.31-.72.31-1.21h.89c0,.67-.15,1.21-.45,1.65-.3.43-.71.75-1.22.96-.51.21-1.11.31-1.77.31Z"/>
      <path class="cls-1" d="M163.13,120.82c-.8,0-1.49-.15-2.07-.45-.58-.3-1.02-.75-1.33-1.34-.31-.6-.47-1.34-.47-2.24s.16-1.65.47-2.24c.31-.59.75-1.04,1.33-1.34s1.27-.45,2.07-.45,1.5.15,2.08.45c.58.3,1.02.75,1.33,1.34s.46,1.34.46,2.24-.15,1.64-.46,2.24-.75,1.05-1.33,1.34c-.58.3-1.27.45-2.08.45ZM163.13,120.04c.45,0,.85-.06,1.21-.18.36-.12.67-.3.93-.56s.46-.58.6-.98c.14-.39.21-.87.21-1.42v-.24c0-.56-.07-1.04-.21-1.43-.14-.39-.34-.72-.6-.98-.26-.26-.57-.44-.93-.56-.36-.12-.77-.18-1.21-.18s-.85.06-1.21.18c-.36.12-.67.3-.92.56-.26.26-.46.58-.6.98s-.21.87-.21,1.43v.24c0,.55.07,1.02.21,1.42s.34.72.6.98c.26.26.57.44.92.56.36.12.76.18,1.21.18Z"/>
      <path class="cls-1" d="M168.66,120.68v-7.78h1.36l2.03,5.39c.05.13.09.27.14.41.05.15.09.29.13.42.04.13.07.24.1.33h.07c.03-.11.07-.23.11-.37.05-.14.09-.29.13-.43.04-.14.08-.26.12-.37l2.03-5.39h1.35v7.78h-.9v-4.84c0-.19,0-.4.01-.64,0-.24.01-.47.02-.7,0-.23,0-.4,0-.52h-.08c-.03.11-.07.25-.12.4-.05.16-.1.31-.15.47s-.1.31-.14.44l-2.09,5.39h-.73l-2.08-5.39c-.05-.12-.09-.25-.14-.4-.05-.14-.09-.3-.14-.45-.05-.16-.09-.31-.14-.47h-.08c0,.15.01.34.02.57,0,.23,0,.45.01.68,0,.23,0,.43,0,.61v4.84h-.87Z"/>
      <path class="cls-1" d="M178.29,120.68v-7.78h1.36l2.03,5.39c.05.13.09.27.14.41.05.15.09.29.13.42.04.13.07.24.1.33h.07c.03-.11.07-.23.11-.37.05-.14.09-.29.13-.43.04-.14.08-.26.12-.37l2.03-5.39h1.35v7.78h-.9v-4.84c0-.19,0-.4.01-.64,0-.24.01-.47.02-.7,0-.23,0-.4,0-.52h-.08c-.03.11-.07.25-.12.4-.05.16-.1.31-.15.47s-.1.31-.14.44l-2.09,5.39h-.73l-2.08-5.39c-.05-.12-.09-.25-.14-.4-.05-.14-.09-.3-.14-.45-.05-.16-.09-.31-.14-.47h-.08c0,.15.01.34.02.57,0,.23,0,.45.01.68,0,.23,0,.43,0,.61v4.84h-.87Z"/>
      <path class="cls-1" d="M191.04,120.82c-.65,0-1.21-.1-1.67-.31s-.82-.54-1.07-1c-.25-.46-.37-1.06-.37-1.79v-4.81h.9v4.99c0,.72.19,1.26.58,1.61.39.36.94.53,1.64.53s1.28-.18,1.69-.53c.4-.36.61-.89.61-1.61v-4.99h.89v4.81c0,.73-.13,1.33-.38,1.79-.25.46-.62.8-1.09,1s-1.04.31-1.71.31Z"/>
      <path class="cls-1" d="M196.27,120.68v-7.78h.87l3.98,5.38c.05.05.1.12.16.22.06.09.13.18.19.28s.12.18.16.26h.06v-6.13h.87v7.78h-.78l-4.06-5.49c-.05-.08-.14-.2-.25-.36-.11-.16-.21-.3-.29-.41h-.05v6.26h-.87Z"/>
      <path class="cls-1" d="M204.63,120.68v-7.78h.9v7.78h-.9Z"/>
      <path class="cls-1" d="M210.85,120.82c-.79,0-1.47-.15-2.01-.44-.55-.3-.96-.74-1.25-1.34s-.43-1.35-.43-2.25c0-1.35.33-2.35.98-3.02.65-.67,1.56-1,2.73-1,.67,0,1.27.11,1.78.32s.91.54,1.2.96.44.97.44,1.63h-.91c0-.49-.1-.89-.31-1.21s-.49-.55-.87-.7c-.37-.15-.82-.23-1.34-.23-.56,0-1.05.11-1.46.33-.42.22-.74.56-.96,1.03-.23.47-.34,1.07-.34,1.82v.24c0,.73.11,1.33.34,1.78s.55.79.96,1c.42.21.91.32,1.48.32.52,0,.97-.08,1.35-.23s.67-.39.87-.7c.2-.31.31-.72.31-1.21h.89c0,.67-.15,1.21-.45,1.65-.3.43-.71.75-1.22.96-.51.21-1.11.31-1.77.31Z"/>
      <path class="cls-1" d="M214.94,120.68l3.1-7.78h1.2l3.11,7.78h-.96l-.82-2.05h-3.9l-.81,2.05h-.92ZM216.97,117.85h3.29l-1.02-2.6c-.02-.06-.06-.15-.1-.27-.05-.12-.1-.26-.15-.41-.06-.15-.11-.31-.17-.47-.06-.16-.11-.3-.16-.43h-.08c-.05.14-.1.31-.18.51-.07.2-.14.39-.22.58-.07.19-.13.36-.19.49l-1.02,2.6Z"/>
      <path class="cls-1" d="M224.38,120.68v-7h-2.76v-.78h6.43v.78h-2.78v7h-.9Z"/>
      <path class="cls-1" d="M229.27,120.68v-7.78h.9v7.78h-.9Z"/>
      <path class="cls-1" d="M235.67,120.82c-.8,0-1.49-.15-2.07-.45s-1.02-.75-1.33-1.34-.47-1.34-.47-2.24.16-1.65.47-2.24.75-1.04,1.33-1.34,1.27-.45,2.07-.45,1.5.15,2.08.45c.58.3,1.02.75,1.33,1.34s.46,1.34.46,2.24-.15,1.64-.46,2.24-.75,1.05-1.33,1.34c-.58.3-1.27.45-2.08.45ZM235.67,120.04c.45,0,.85-.06,1.21-.18.36-.12.67-.3.93-.56s.46-.58.6-.98c.14-.39.21-.87.21-1.42v-.24c0-.56-.07-1.04-.21-1.43-.14-.39-.34-.72-.6-.98-.26-.26-.57-.44-.93-.56-.36-.12-.77-.18-1.21-.18s-.85.06-1.21.18c-.36.12-.67.3-.92.56-.26.26-.46.58-.6.98s-.21.87-.21,1.43v.24c0,.55.07,1.02.21,1.42s.34.72.6.98c.26.26.57.44.92.56.36.12.76.18,1.21.18Z"/>
      <path class="cls-1" d="M241.2,120.68v-7.78h.87l3.98,5.38c.05.05.1.12.16.22.06.09.13.18.19.28s.12.18.16.26h.06v-6.13h.87v7.78h-.78l-4.06-5.49c-.05-.08-.14-.2-.25-.36-.11-.16-.21-.3-.29-.41h-.05v6.26h-.87Z"/>
      <path class="cls-1" d="M254.01,120.68l-2.94-7.78h.96l2.08,5.58c.05.12.09.26.15.41.05.16.11.31.16.45.05.15.1.28.14.4h.08c.04-.11.08-.24.14-.39.05-.15.11-.3.16-.45.05-.15.1-.29.15-.41l2.05-5.59h.94l-2.95,7.78h-1.11Z"/>
      <path class="cls-1" d="M257.99,120.68l3.1-7.78h1.2l3.11,7.78h-.96l-.82-2.05h-3.9l-.81,2.05h-.92ZM260.02,117.85h3.29l-1.02-2.6c-.02-.06-.06-.15-.1-.27-.05-.12-.1-.26-.15-.41-.06-.15-.11-.31-.17-.47-.06-.16-.11-.3-.16-.43h-.08c-.05.14-.1.31-.18.51-.07.2-.14.39-.22.58-.07.19-.13.36-.19.49l-1.02,2.6Z"/>
      <path class="cls-1" d="M266.53,120.68v-7.78h.9v7h3.85v.78h-4.74Z"/>
      <path class="cls-1" d="M275.14,120.82c-.65,0-1.21-.1-1.67-.31s-.82-.54-1.07-1c-.25-.46-.37-1.06-.37-1.79v-4.81h.9v4.99c0,.72.19,1.26.58,1.61.39.36.94.53,1.64.53s1.28-.18,1.69-.53c.4-.36.61-.89.61-1.61v-4.99h.89v4.81c0,.73-.13,1.33-.38,1.79-.25.46-.62.8-1.09,1s-1.04.31-1.71.31Z"/>
      <path class="cls-1" d="M280.37,120.68v-7.78h5.96v.77h-5.06v2.63h4.56v.78h-4.56v2.83h5.13v.77h-6.03Z"/>
      <path class="cls-1" d="M290.5,120.68v-7.78h.9v7.78h-.9Z"/>
      <path class="cls-1" d="M293.45,120.68v-7.78h.87l3.98,5.38c.05.05.1.12.16.22.06.09.13.18.19.28s.12.18.16.26h.06v-6.13h.87v7.78h-.78l-4.06-5.49c-.05-.08-.14-.2-.25-.36-.11-.16-.21-.3-.29-.41h-.05v6.26h-.87Z"/>
      <path class="cls-1" d="M304.65,120.82c-.42,0-.82-.04-1.21-.11-.39-.08-.74-.2-1.04-.39-.3-.18-.54-.42-.72-.71-.17-.3-.26-.66-.26-1.1v-.11s0-.07.01-.11h.9s0,.07,0,.12c0,.05,0,.1,0,.14,0,.33.1.61.3.83.2.22.47.39.82.5.34.11.73.16,1.16.16.14,0,.32,0,.52-.03.2-.02.4-.06.61-.11.21-.06.4-.14.57-.24.17-.1.32-.23.43-.4.11-.16.16-.36.16-.61,0-.28-.08-.51-.23-.69-.15-.18-.35-.33-.6-.45-.25-.12-.53-.22-.85-.31-.32-.09-.64-.18-.98-.26-.33-.08-.66-.18-.97-.28-.31-.11-.6-.24-.85-.4s-.45-.36-.6-.6c-.15-.24-.22-.53-.22-.88,0-.3.06-.58.18-.83s.31-.46.56-.64c.25-.18.57-.32.95-.41s.84-.15,1.37-.15c.4,0,.78.04,1.12.12.35.08.65.21.92.39.27.18.47.4.62.67.15.27.22.59.22.97v.14h-.89v-.19c0-.28-.09-.52-.26-.71-.17-.19-.41-.34-.7-.45s-.62-.16-.99-.16c-.51,0-.92.05-1.25.15-.33.1-.57.24-.73.42s-.24.38-.24.6c0,.26.08.47.23.64s.35.31.6.42.53.21.85.3c.31.09.64.17.97.26.33.08.66.18.97.29.31.11.6.25.85.41.25.16.45.36.6.61.15.24.22.54.22.9,0,.54-.13.98-.4,1.32-.27.34-.64.59-1.11.75-.47.16-1.01.24-1.63.24Z"/>
      <path class="cls-1" d="M311.38,120.68v-7h-2.76v-.78h6.43v.78h-2.78v7h-.9Z"/>
      <path class="cls-1" d="M316.27,120.68v-7.78h.9v7.78h-.9Z"/>
      <path class="cls-1" d="M321.13,120.68v-7h-2.76v-.78h6.43v.78h-2.78v7h-.9Z"/>
      <path class="cls-1" d="M329.13,120.82c-.65,0-1.21-.1-1.67-.31s-.82-.54-1.07-1c-.25-.46-.37-1.06-.37-1.79v-4.81h.9v4.99c0,.72.19,1.26.58,1.61.39.36.94.53,1.64.53s1.28-.18,1.69-.53c.4-.36.61-.89.61-1.61v-4.99h.89v4.81c0,.73-.13,1.33-.38,1.79-.25.46-.62.8-1.09,1s-1.04.31-1.71.31Z"/>
      <path class="cls-1" d="M336.26,120.68v-7h-2.76v-.78h6.43v.78h-2.78v7h-.9Z"/>
      <path class="cls-1" d="M341.16,120.68v-7.78h5.96v.77h-5.06v2.63h4.56v.78h-4.56v2.83h5.13v.77h-6.03Z"/>
    </g>
  </g>
  <g>
    <path class="cls-2" d="M74.68,34.82c-7.8,4.96-13.89,12.68-16.63,22.27-2.56,8.96-1.77,18.08,1.61,26.03-1-4.02-.99-8.34.23-12.61,3.71-13.01,17.27-20.54,30.28-16.83s20.54,17.27,16.83,30.28c-3.71,13.01-17.27,20.54-30.28,16.83-1.8-.51-3.49-1.22-5.07-2.08,3.84,2.99,8.3,5.3,13.27,6.72,20.77,5.93,42.41-6.1,48.34-26.87,5.93-20.77-6.1-42.41-26.87-48.34-10.89-3.11-22.03-1.28-31.01,4.16"/>
    <path class="cls-2" d="M75.38,34.39c-.24.14-.47.29-.7.44"/>
    <path class="cls-1" d="M75.33,34.42c-3.17-2.07-6.7-3.72-10.54-4.82-20.75-6-42.43,5.97-48.43,26.72-6,20.75,5.97,42.43,26.72,48.43,20.75,6,42.43-5.97,48.43-26.72,2.59-8.95,1.83-18.07-1.53-26.03.98,4.02.96,8.34-.27,12.61-3.76,13-17.34,20.49-30.33,16.73-13-3.76-20.49-17.34-16.73-30.33,3.76-13,17.34-20.49,30.33-16.73.58.17,1.15.35,1.7.56"/>
    <line class="cls-1" x1="90.29" y1="53.72" x2="90.77" y2="53.87"/>
    <polyline class="cls-2" points="90.26 53.71 90.87 53.9 89.98 51.99"/>
  </g>
</svg>