<?xml version="1.0" encoding="UTF-8"?>
<svg id="Layer_1" data-name="Layer 1" xmlns="http://www.w3.org/2000/svg" viewBox="0 0 227 165">
  <defs>
    <style>
      .cls-1 {
        fill: #812a54;
      }

      .cls-1, .cls-2 {
        stroke-width: 0px;
      }

      .cls-2 {
        fill: #aacef5;
      }
    </style>
  </defs>
  <g>
    <path class="cls-1" d="M22,121.68c-1.63,0-3.01-.3-4.13-.91-1.13-.61-1.98-1.52-2.56-2.75s-.87-2.76-.87-4.61c0-2.76.67-4.83,2-6.21,1.34-1.37,3.21-2.06,5.61-2.06,1.38,0,2.6.22,3.64.66s1.87,1.1,2.47,1.98.9,1.99.9,3.34h-1.86c0-1.01-.21-1.84-.63-2.48s-1.01-1.13-1.78-1.44c-.77-.32-1.69-.48-2.76-.48-1.15,0-2.15.23-3,.68-.85.45-1.51,1.15-1.98,2.11-.47.96-.7,2.2-.7,3.74v.49c0,1.51.23,2.72.7,3.66.47.93,1.12,1.61,1.98,2.05.85.43,1.86.65,3.03.65,1.07,0,2-.16,2.77-.48s1.37-.8,1.79-1.44c.42-.64.63-1.47.63-2.48h1.82c0,1.37-.31,2.49-.92,3.38-.61.88-1.45,1.54-2.5,1.97-1.06.43-2.27.64-3.63.64Z"/>
    <path class="cls-1" d="M39.41,121.68c-1.64,0-3.06-.31-4.25-.92s-2.1-1.53-2.74-2.76c-.64-1.23-.96-2.76-.96-4.59s.32-3.38.96-4.6c.64-1.22,1.55-2.13,2.74-2.75s2.6-.92,4.25-.92,3.09.31,4.27.92c1.19.61,2.1,1.53,2.72,2.75s.94,2.75.94,4.6-.31,3.36-.94,4.59-1.54,2.15-2.72,2.76c-1.19.61-2.61.92-4.27.92ZM39.41,120.1c.92,0,1.75-.12,2.49-.36.74-.24,1.38-.63,1.91-1.15s.94-1.2,1.22-2c.29-.81.43-1.78.43-2.91v-.49c0-1.15-.14-2.13-.43-2.93-.29-.81-.7-1.47-1.22-2-.53-.53-1.16-.91-1.91-1.15-.75-.24-1.58-.36-2.49-.36s-1.74.12-2.48.36c-.74.24-1.37.62-1.9,1.15-.53.53-.94,1.2-1.22,2s-.43,1.79-.43,2.93v.49c0,1.13.14,2.1.43,2.91s.69,1.48,1.22,2c.53.53,1.16.91,1.9,1.15.74.24,1.56.36,2.48.36Z"/>
    <path class="cls-1" d="M50.75,121.4v-15.97h2.79l4.17,11.06c.09.26.19.55.28.85.09.3.18.59.27.86.09.27.15.5.2.69h.14c.06-.22.14-.47.23-.77.09-.29.18-.59.27-.87.08-.29.17-.54.25-.76l4.17-11.06h2.77v15.97h-1.84v-9.94c0-.39,0-.83.02-1.32.02-.49.03-.97.03-1.43,0-.47.01-.82.01-1.07h-.16c-.06.23-.14.51-.24.83-.1.32-.2.64-.3.97s-.2.63-.29.91l-4.28,11.06h-1.49l-4.26-11.06c-.09-.25-.19-.52-.28-.81-.09-.29-.19-.61-.28-.93-.09-.33-.19-.64-.28-.96h-.16c.02.31.03.7.03,1.16,0,.47.02.93.02,1.4,0,.47.01.88.01,1.26v9.94h-1.79Z"/>
    <path class="cls-1" d="M70.53,121.4v-15.97h2.79l4.17,11.06c.09.26.19.55.28.85.09.3.18.59.27.86.09.27.15.5.2.69h.14c.06-.22.14-.47.23-.77.09-.29.18-.59.27-.87.08-.29.17-.54.25-.76l4.17-11.06h2.77v15.97h-1.84v-9.94c0-.39,0-.83.02-1.32.02-.49.03-.97.03-1.43,0-.47.01-.82.01-1.07h-.16c-.06.23-.14.51-.24.83-.1.32-.2.64-.3.97s-.2.63-.29.91l-4.28,11.06h-1.49l-4.26-11.06c-.09-.25-.19-.52-.28-.81-.09-.29-.19-.61-.28-.93-.09-.33-.19-.64-.28-.96h-.16c.02.31.03.7.03,1.16,0,.47.02.93.02,1.4,0,.47.01.88.01,1.26v9.94h-1.79Z"/>
    <path class="cls-1" d="M96.68,121.68c-1.33,0-2.48-.21-3.43-.64s-1.69-1.11-2.2-2.06c-.51-.95-.77-2.17-.77-3.68v-9.87h1.84v10.25c0,1.48.4,2.58,1.2,3.31.8.73,1.92,1.09,3.36,1.09s2.63-.36,3.46-1.09c.83-.73,1.25-1.83,1.25-3.31v-10.25h1.82v9.87c0,1.51-.26,2.73-.78,3.68-.52.95-1.27,1.63-2.24,2.06s-2.14.64-3.51.64Z"/>
    <path class="cls-1" d="M107.41,121.4v-15.97h1.79l8.17,11.04c.09.11.2.26.34.44.13.19.26.38.4.57s.24.37.34.52h.12v-12.57h1.79v15.97h-1.61l-8.34-11.27c-.11-.16-.28-.4-.51-.73-.23-.33-.44-.62-.6-.85h-.09v12.85h-1.79Z"/>
    <path class="cls-1" d="M124.57,121.4v-15.97h1.84v15.97h-1.84Z"/>
    <path class="cls-1" d="M137.33,121.68c-1.63,0-3.01-.3-4.13-.91-1.13-.61-1.98-1.52-2.56-2.75s-.87-2.76-.87-4.61c0-2.76.67-4.83,2-6.21,1.34-1.37,3.21-2.06,5.61-2.06,1.38,0,2.6.22,3.64.66s1.87,1.1,2.47,1.98c.6.88.9,1.99.9,3.34h-1.86c0-1.01-.21-1.84-.63-2.48s-1.01-1.13-1.78-1.44c-.77-.32-1.69-.48-2.76-.48-1.15,0-2.15.23-3,.68-.85.45-1.51,1.15-1.98,2.11-.47.96-.7,2.2-.7,3.74v.49c0,1.51.23,2.72.7,3.66s1.12,1.61,1.98,2.05c.85.43,1.86.65,3.03.65,1.07,0,2-.16,2.77-.48s1.37-.8,1.79-1.44c.42-.64.63-1.47.63-2.48h1.82c0,1.37-.31,2.49-.92,3.38-.61.88-1.45,1.54-2.5,1.97-1.06.43-2.27.64-3.63.64Z"/>
    <path class="cls-1" d="M145.74,121.4l6.36-15.97h2.47l6.38,15.97h-1.98l-1.68-4.21h-8.01l-1.65,4.21h-1.89ZM149.91,115.6h6.75l-2.1-5.33c-.05-.12-.12-.31-.21-.56-.09-.25-.2-.53-.31-.85-.12-.32-.23-.64-.35-.97-.12-.33-.23-.62-.34-.88h-.16c-.09.29-.21.64-.36,1.05-.15.4-.3.8-.44,1.2-.15.4-.28.73-.38,1.01l-2.1,5.33Z"/>
    <path class="cls-1" d="M165.11,121.4v-14.37h-5.66v-1.61h13.2v1.61h-5.7v14.37h-1.84Z"/>
    <path class="cls-1" d="M175.15,121.4v-15.97h1.84v15.97h-1.84Z"/>
    <path class="cls-1" d="M188.28,121.68c-1.64,0-3.06-.31-4.25-.92s-2.1-1.53-2.74-2.76c-.64-1.23-.96-2.76-.96-4.59s.32-3.38.96-4.6c.64-1.22,1.55-2.13,2.74-2.75s2.6-.92,4.25-.92,3.09.31,4.27.92c1.19.61,2.1,1.53,2.72,2.75.63,1.22.94,2.75.94,4.6s-.31,3.36-.94,4.59c-.63,1.23-1.54,2.15-2.72,2.76-1.19.61-2.61.92-4.27.92ZM188.28,120.1c.92,0,1.75-.12,2.49-.36.74-.24,1.38-.63,1.91-1.15s.94-1.2,1.22-2c.29-.81.43-1.78.43-2.91v-.49c0-1.15-.14-2.13-.43-2.93-.29-.81-.7-1.47-1.22-2-.53-.53-1.16-.91-1.91-1.15-.75-.24-1.58-.36-2.49-.36s-1.74.12-2.48.36c-.74.24-1.37.62-1.9,1.15-.53.53-.94,1.2-1.22,2s-.43,1.79-.43,2.93v.49c0,1.13.14,2.1.43,2.91s.69,1.48,1.22,2c.53.53,1.16.91,1.9,1.15.74.24,1.56.36,2.48.36Z"/>
    <path class="cls-1" d="M199.63,121.4v-15.97h1.79l8.17,11.04c.09.11.2.26.34.44.13.19.26.38.4.57s.24.37.34.52h.12v-12.57h1.79v15.97h-1.61l-8.34-11.27c-.11-.16-.28-.4-.51-.73-.23-.33-.44-.62-.6-.85h-.09v12.85h-1.79Z"/>
  </g>
  <g>
    <path class="cls-1" d="M20.91,147.05l-6.03-15.97h1.98l4.26,11.46c.09.25.19.53.3.85.11.32.22.63.33.93.11.3.2.58.28.83h.16c.08-.23.17-.5.28-.8.11-.3.22-.61.33-.93.11-.32.21-.6.3-.85l4.21-11.48h1.93l-6.06,15.97h-2.28Z"/>
    <path class="cls-1" d="M29.09,147.05l6.36-15.97h2.47l6.38,15.97h-1.98l-1.68-4.21h-8.01l-1.65,4.21h-1.89ZM33.25,141.25h6.75l-2.1-5.33c-.05-.12-.12-.31-.21-.56-.09-.25-.2-.53-.31-.85-.12-.32-.23-.64-.35-.97-.12-.33-.23-.62-.34-.88h-.16c-.09.29-.21.64-.36,1.05-.15.4-.3.8-.44,1.2-.15.4-.28.73-.38,1.01l-2.1,5.33Z"/>
    <path class="cls-1" d="M46.6,147.05v-15.97h1.84v14.37h7.89v1.61h-9.73Z"/>
    <path class="cls-1" d="M64.27,147.33c-1.33,0-2.48-.21-3.43-.64s-1.69-1.11-2.2-2.06c-.51-.95-.77-2.17-.77-3.68v-9.87h1.84v10.25c0,1.48.4,2.58,1.2,3.31.8.73,1.92,1.09,3.36,1.09s2.63-.36,3.46-1.09c.83-.73,1.25-1.83,1.25-3.31v-10.25h1.82v9.87c0,1.51-.26,2.73-.78,3.68-.52.95-1.27,1.63-2.24,2.06s-2.14.64-3.51.64Z"/>
    <path class="cls-1" d="M75.01,147.05v-15.97h12.23v1.58h-10.39v5.4h9.36v1.61h-9.36v5.8h10.53v1.58h-12.36Z"/>
    <path class="cls-1" d="M95.8,147.05v-15.97h1.84v15.97h-1.84Z"/>
    <path class="cls-1" d="M101.86,147.05v-15.97h1.79l8.17,11.04c.09.11.2.26.34.44.13.19.26.38.4.57s.24.37.34.52h.12v-12.57h1.79v15.97h-1.61l-8.34-11.27c-.11-.16-.28-.4-.51-.73-.23-.33-.44-.62-.6-.85h-.09v12.85h-1.79Z"/>
    <path class="cls-1" d="M124.84,147.33c-.86,0-1.68-.08-2.49-.23-.81-.15-1.52-.42-2.14-.79-.62-.37-1.11-.86-1.47-1.47-.36-.61-.54-1.36-.54-2.26v-.22c0-.07,0-.14.02-.22h1.84c0,.06,0,.15-.01.26,0,.11-.01.2-.01.28,0,.68.2,1.25.62,1.71.41.46.97.8,1.68,1.02.7.23,1.5.34,2.39.34.29,0,.65-.02,1.06-.06.41-.04.83-.12,1.26-.23.43-.12.82-.28,1.18-.49.36-.21.65-.48.87-.82.22-.33.34-.75.34-1.25,0-.57-.16-1.05-.47-1.42-.31-.37-.72-.68-1.22-.92-.5-.24-1.08-.45-1.73-.64-.65-.19-1.32-.36-2-.54-.68-.17-1.35-.36-1.99-.58-.65-.22-1.22-.49-1.74-.81s-.92-.73-1.22-1.22c-.3-.49-.45-1.09-.45-1.8,0-.62.12-1.19.37-1.7s.63-.95,1.14-1.32c.51-.36,1.16-.65,1.96-.85s1.73-.3,2.82-.3c.82,0,1.59.09,2.31.26.71.17,1.34.44,1.89.8.54.37.97.82,1.27,1.37.3.55.45,1.21.45,1.99v.28h-1.82v-.4c0-.57-.18-1.06-.54-1.46-.36-.4-.84-.71-1.43-.93s-1.28-.34-2.04-.34c-1.04,0-1.9.11-2.56.31-.67.21-1.16.5-1.49.86s-.49.77-.49,1.22c0,.53.15.97.47,1.32s.72.64,1.23.86,1.09.43,1.73.61c.64.18,1.31.35,1.99.52.68.17,1.35.37,1.99.59.64.23,1.23.5,1.75.84.52.33.93.75,1.23,1.25.3.5.45,1.11.45,1.84,0,1.1-.27,2-.83,2.7-.55.7-1.31,1.21-2.27,1.54-.96.33-2.08.49-3.35.49Z"/>
    <path class="cls-1" d="M138.65,147.05v-14.37h-5.66v-1.61h13.2v1.61h-5.7v14.37h-1.84Z"/>
    <path class="cls-1" d="M148.68,147.05v-15.97h1.84v15.97h-1.84Z"/>
    <path class="cls-1" d="M158.65,147.05v-14.37h-5.66v-1.61h13.2v1.61h-5.7v14.37h-1.84Z"/>
    <path class="cls-1" d="M175.07,147.33c-1.33,0-2.48-.21-3.43-.64s-1.69-1.11-2.2-2.06c-.51-.95-.77-2.17-.77-3.68v-9.87h1.84v10.25c0,1.48.4,2.58,1.2,3.31.8.73,1.92,1.09,3.36,1.09s2.63-.36,3.46-1.09c.83-.73,1.25-1.83,1.25-3.31v-10.25h1.82v9.87c0,1.51-.26,2.73-.78,3.68-.52.95-1.27,1.63-2.24,2.06s-2.14.64-3.51.64Z"/>
    <path class="cls-1" d="M189.72,147.05v-14.37h-5.66v-1.61h13.2v1.61h-5.7v14.37h-1.84Z"/>
    <path class="cls-1" d="M199.75,147.05v-15.97h12.23v1.58h-10.39v5.4h9.36v1.61h-9.36v5.8h10.53v1.58h-12.36Z"/>
  </g>
  <g>
    <path class="cls-2" d="M113.39,24.21c-7.54,4.79-13.42,12.25-16.07,21.52-2.47,8.66-1.71,17.47,1.56,25.15-.96-3.88-.96-8.06.22-12.18,3.59-12.57,16.69-19.85,29.26-16.26,12.57,3.59,19.85,16.69,16.26,29.26-3.59,12.57-16.69,19.85-29.26,16.26-1.74-.5-3.38-1.18-4.9-2.01,3.71,2.89,8.02,5.12,12.82,6.49,20.07,5.73,40.98-5.89,46.71-25.96,5.73-20.07-5.89-40.98-25.96-46.71-10.53-3.01-21.29-1.24-29.97,4.02"/>
    <path class="cls-2" d="M114.06,23.79c-.23.14-.45.28-.68.42"/>
    <path class="cls-1" d="M114.01,23.82c-3.07-2-6.48-3.59-10.18-4.66-20.05-5.79-41,5.76-46.79,25.81-5.79,20.05,5.76,41,25.81,46.79s41-5.76,46.79-25.81c2.5-8.65,1.77-17.46-1.48-25.16.95,3.88.93,8.06-.26,12.18-3.63,12.56-16.75,19.8-29.31,16.17s-19.8-16.75-16.17-29.31c3.63-12.56,16.75-19.8,29.31-16.17.56.16,1.11.34,1.65.54"/>
    <line class="cls-1" x1="128.47" y1="42.47" x2="128.93" y2="42.61"/>
    <polyline class="cls-2" points="128.44 42.47 129.03 42.64 128.17 40.8"/>
  </g>
</svg>