<?xml version="1.0" encoding="UTF-8"?>
<svg id="Layer_1" data-name="Layer 1" xmlns="http://www.w3.org/2000/svg" viewBox="0 0 215 197">
  <defs>
    <style>
      .cls-1 {
        fill: #812a54;
      }

      .cls-1, .cls-2 {
        stroke-width: 0px;
      }

      .cls-2 {
        fill: #aacef5;
      }
    </style>
  </defs>
  <g>
    <path class="cls-2" d="M60.56,169.16c-5.71,0-10.96-.94-15.75-2.8-4.79-1.87-8.97-4.53-12.53-7.98-3.56-3.45-6.33-7.47-8.3-12.05-1.97-4.58-2.96-9.66-2.96-15.22s.99-10.64,2.96-15.22c1.97-4.58,4.76-8.6,8.35-12.05,3.6-3.45,7.79-6.11,12.58-7.98,4.79-1.87,10.04-2.8,15.75-2.8,6.06,0,11.59,1.04,16.6,3.12,5,2.08,9.23,5.16,12.69,9.25l-8.88,8.35c-2.75-2.89-5.78-5.06-9.09-6.5-3.31-1.44-6.87-2.17-10.68-2.17s-7.42.63-10.62,1.9c-3.21,1.27-5.99,3.07-8.35,5.39-2.36,2.33-4.21,5.07-5.55,8.25-1.34,3.17-2.01,6.66-2.01,10.47s.67,7.3,2.01,10.47c1.34,3.17,3.19,5.92,5.55,8.25,2.36,2.33,5.15,4.12,8.35,5.39,3.21,1.27,6.75,1.9,10.62,1.9s7.37-.72,10.68-2.17c3.31-1.44,6.34-3.65,9.09-6.61l8.88,8.35c-3.45,4.09-7.68,7.19-12.69,9.3-5,2.11-10.57,3.17-16.7,3.17Z"/>
    <path class="cls-2" d="M125.05,168.1l-32.35-74.01h14.91l28.86,66.92h-8.67l29.39-66.92h13.64l-32.25,74.01h-13.53Z"/>
    <path class="cls-2" d="M180.24,168.1v-74.01h13.75v74.01h-13.75Z"/>
  </g>
  <g>
    <path class="cls-2" d="M24.12,187.2c-.7,0-1.29-.13-1.78-.39-.48-.26-.85-.65-1.1-1.18s-.38-1.19-.38-1.98c0-1.19.29-2.08.86-2.67.57-.59,1.38-.89,2.42-.89.59,0,1.12.1,1.57.29s.81.47,1.06.85.39.86.39,1.44h-.8c0-.43-.09-.79-.27-1.07s-.44-.48-.77-.62c-.33-.14-.73-.21-1.19-.21-.49,0-.93.1-1.29.29-.37.19-.65.5-.85.91-.2.41-.3.95-.3,1.61v.21c0,.65.1,1.17.3,1.57s.48.69.85.88c.37.19.8.28,1.3.28.46,0,.86-.07,1.19-.21s.59-.34.77-.62c.18-.28.27-.63.27-1.07h.78c0,.59-.13,1.07-.4,1.45-.26.38-.62.66-1.08.85-.45.18-.98.28-1.56.28Z"/>
    <path class="cls-2" d="M31.61,187.2c-.71,0-1.32-.13-1.83-.4s-.9-.66-1.18-1.19c-.27-.53-.41-1.19-.41-1.97s.14-1.45.41-1.98.67-.92,1.18-1.18,1.12-.4,1.83-.4,1.33.13,1.84.4c.51.26.9.66,1.17,1.18s.41,1.18.41,1.98-.14,1.45-.41,1.97-.66.92-1.17,1.19c-.51.26-1.12.4-1.84.4ZM31.61,186.52c.39,0,.75-.05,1.07-.16.32-.1.59-.27.82-.5s.4-.51.53-.86c.12-.35.19-.76.19-1.25v-.21c0-.49-.06-.92-.19-1.26-.12-.35-.3-.63-.53-.86-.23-.23-.5-.39-.82-.5-.32-.1-.68-.16-1.07-.16s-.75.05-1.07.16c-.32.1-.59.27-.82.5-.23.23-.4.51-.53.86s-.19.77-.19,1.26v.21c0,.49.06.91.19,1.25s.3.63.53.86c.23.23.5.39.82.5.32.1.67.16,1.07.16Z"/>
    <path class="cls-2" d="M36.49,187.08v-6.87h1.2l1.79,4.76c.04.11.08.24.12.37.04.13.08.25.11.37.04.12.07.22.09.3h.06c.03-.09.06-.2.1-.33.04-.13.08-.25.11-.38.04-.12.07-.23.11-.33l1.79-4.76h1.19v6.87h-.79v-4.28c0-.17,0-.36.01-.57,0-.21.01-.42.02-.62,0-.2,0-.35,0-.46h-.07c-.03.1-.06.22-.11.36-.04.14-.09.28-.13.42s-.09.27-.13.39l-1.84,4.76h-.64l-1.83-4.76c-.04-.11-.08-.22-.12-.35-.04-.13-.08-.26-.12-.4-.04-.14-.08-.28-.12-.41h-.07c0,.13.01.3.02.5,0,.2,0,.4.01.6,0,.2,0,.38,0,.54v4.28h-.77Z"/>
    <path class="cls-2" d="M45,187.08v-6.87h1.2l1.79,4.76c.04.11.08.24.12.37.04.13.08.25.11.37.04.12.07.22.09.3h.06c.03-.09.06-.2.1-.33.04-.13.08-.25.11-.38.04-.12.07-.23.11-.33l1.79-4.76h1.19v6.87h-.79v-4.28c0-.17,0-.36.01-.57,0-.21.01-.42.02-.62,0-.2,0-.35,0-.46h-.07c-.03.1-.06.22-.11.36-.04.14-.09.28-.13.42s-.09.27-.13.39l-1.84,4.76h-.64l-1.83-4.76c-.04-.11-.08-.22-.12-.35-.04-.13-.08-.26-.12-.4-.04-.14-.08-.28-.12-.41h-.07c0,.13.01.3.02.5,0,.2,0,.4.01.6,0,.2,0,.38,0,.54v4.28h-.77Z"/>
    <path class="cls-2" d="M56.25,187.2c-.57,0-1.07-.09-1.48-.28s-.73-.48-.95-.89c-.22-.41-.33-.94-.33-1.58v-4.25h.79v4.41c0,.63.17,1.11.52,1.42.34.31.83.47,1.45.47s1.13-.16,1.49-.47c.36-.31.54-.79.54-1.42v-4.41h.78v4.25c0,.65-.11,1.18-.34,1.58-.22.41-.54.7-.96.89s-.92.28-1.51.28Z"/>
    <path class="cls-2" d="M60.87,187.08v-6.87h.77l3.52,4.75s.09.11.15.19c.06.08.11.16.17.25s.11.16.14.23h.05v-5.41h.77v6.87h-.69l-3.59-4.85c-.05-.07-.12-.17-.22-.32-.1-.14-.19-.27-.26-.37h-.04v5.53h-.77Z"/>
    <path class="cls-2" d="M68.26,187.08v-6.87h.79v6.87h-.79Z"/>
    <path class="cls-2" d="M73.75,187.2c-.7,0-1.29-.13-1.78-.39-.48-.26-.85-.65-1.1-1.18s-.38-1.19-.38-1.98c0-1.19.29-2.08.86-2.67.57-.59,1.38-.89,2.42-.89.59,0,1.12.1,1.57.29s.81.47,1.06.85.39.86.39,1.44h-.8c0-.43-.09-.79-.27-1.07s-.44-.48-.77-.62c-.33-.14-.73-.21-1.19-.21-.49,0-.93.1-1.29.29-.37.19-.65.5-.85.91-.2.41-.3.95-.3,1.61v.21c0,.65.1,1.17.3,1.57s.48.69.85.88c.37.19.8.28,1.3.28.46,0,.86-.07,1.19-.21s.59-.34.77-.62c.18-.28.27-.63.27-1.07h.78c0,.59-.13,1.07-.4,1.45-.26.38-.62.66-1.08.85-.45.18-.98.28-1.56.28Z"/>
    <path class="cls-2" d="M77.36,187.08l2.74-6.87h1.06l2.75,6.87h-.85l-.72-1.81h-3.45l-.71,1.81h-.81ZM79.16,184.58h2.91l-.9-2.29c-.02-.05-.05-.13-.09-.24-.04-.11-.08-.23-.14-.37-.05-.14-.1-.28-.15-.42-.05-.14-.1-.27-.14-.38h-.07c-.04.13-.09.28-.16.45-.06.17-.13.35-.19.52-.06.17-.12.32-.17.44l-.9,2.29Z"/>
    <path class="cls-2" d="M85.7,187.08v-6.18h-2.43v-.69h5.68v.69h-2.45v6.18h-.79Z"/>
    <path class="cls-2" d="M90.02,187.08v-6.87h.79v6.87h-.79Z"/>
    <path class="cls-2" d="M95.67,187.2c-.71,0-1.32-.13-1.83-.4s-.9-.66-1.18-1.19-.41-1.19-.41-1.97.14-1.45.41-1.98.67-.92,1.18-1.18,1.12-.4,1.83-.4,1.33.13,1.84.4c.51.26.9.66,1.17,1.18s.41,1.18.41,1.98-.14,1.45-.41,1.97-.66.92-1.17,1.19c-.51.26-1.12.4-1.84.4ZM95.67,186.52c.39,0,.75-.05,1.07-.16.32-.1.59-.27.82-.5s.4-.51.53-.86c.12-.35.19-.76.19-1.25v-.21c0-.49-.06-.92-.19-1.26-.12-.35-.3-.63-.53-.86-.23-.23-.5-.39-.82-.5-.32-.1-.68-.16-1.07-.16s-.75.05-1.07.16c-.32.1-.59.27-.82.5-.23.23-.4.51-.53.86s-.19.77-.19,1.26v.21c0,.49.06.91.19,1.25s.3.63.53.86c.23.23.5.39.82.5.32.1.67.16,1.07.16Z"/>
    <path class="cls-2" d="M100.55,187.08v-6.87h.77l3.52,4.75s.09.11.15.19c.06.08.11.16.17.25s.11.16.14.23h.05v-5.41h.77v6.87h-.69l-3.59-4.85c-.05-.07-.12-.17-.22-.32-.1-.14-.19-.27-.26-.37h-.04v5.53h-.77Z"/>
    <path class="cls-2" d="M111.86,187.08l-2.6-6.87h.85l1.83,4.93c.04.11.08.23.13.37.05.14.09.27.14.4.05.13.09.25.12.36h.07c.03-.1.07-.22.12-.35.05-.13.09-.26.14-.4.05-.14.09-.26.13-.37l1.81-4.94h.83l-2.61,6.87h-.98Z"/>
    <path class="cls-2" d="M115.38,187.08l2.74-6.87h1.06l2.75,6.87h-.85l-.72-1.81h-3.45l-.71,1.81h-.81ZM117.17,184.58h2.91l-.9-2.29c-.02-.05-.05-.13-.09-.24-.04-.11-.08-.23-.14-.37-.05-.14-.1-.28-.15-.42-.05-.14-.1-.27-.14-.38h-.07c-.04.13-.09.28-.16.45-.06.17-.13.35-.19.52-.06.17-.12.32-.17.44l-.9,2.29Z"/>
    <path class="cls-2" d="M122.92,187.08v-6.87h.79v6.18h3.4v.69h-4.19Z"/>
    <path class="cls-2" d="M130.52,187.2c-.57,0-1.07-.09-1.48-.28s-.73-.48-.95-.89c-.22-.41-.33-.94-.33-1.58v-4.25h.79v4.41c0,.63.17,1.11.52,1.42.34.31.83.47,1.45.47s1.13-.16,1.49-.47c.36-.31.54-.79.54-1.42v-4.41h.78v4.25c0,.65-.11,1.18-.34,1.58-.22.41-.54.7-.96.89s-.92.28-1.51.28Z"/>
    <path class="cls-2" d="M135.14,187.08v-6.87h5.26v.68h-4.47v2.32h4.03v.69h-4.03v2.49h4.53v.68h-5.32Z"/>
    <path class="cls-2" d="M144.09,187.08v-6.87h.79v6.87h-.79Z"/>
    <path class="cls-2" d="M146.69,187.08v-6.87h.77l3.52,4.75s.09.11.15.19c.06.08.11.16.17.25s.11.16.14.23h.05v-5.41h.77v6.87h-.69l-3.59-4.85c-.05-.07-.12-.17-.22-.32-.1-.14-.19-.27-.26-.37h-.04v5.53h-.77Z"/>
    <path class="cls-2" d="M156.58,187.2c-.37,0-.72-.03-1.07-.1-.35-.07-.65-.18-.92-.34-.27-.16-.48-.37-.63-.63-.15-.26-.23-.58-.23-.97v-.1s0-.06.01-.1h.79s0,.06,0,.11c0,.05,0,.09,0,.12,0,.29.09.54.27.74.18.2.42.34.72.44.3.1.65.15,1.03.15.13,0,.28,0,.46-.03.18-.02.36-.05.54-.1.18-.05.35-.12.51-.21.15-.09.28-.21.38-.35.1-.14.15-.32.15-.54,0-.25-.07-.45-.2-.61-.13-.16-.31-.29-.53-.4-.22-.1-.47-.2-.75-.28-.28-.08-.57-.16-.86-.23-.29-.07-.58-.16-.86-.25-.28-.09-.53-.21-.75-.35s-.4-.32-.53-.53c-.13-.21-.2-.47-.2-.78,0-.27.05-.51.16-.73s.27-.41.49-.57c.22-.16.5-.28.84-.37s.74-.13,1.21-.13c.35,0,.68.04.99.11.31.07.58.19.81.35.23.16.42.35.55.59.13.24.2.52.2.86v.12h-.78v-.17c0-.25-.08-.46-.23-.63-.15-.17-.36-.3-.62-.4s-.55-.15-.88-.15c-.45,0-.82.05-1.1.14-.29.09-.5.21-.64.37s-.21.33-.21.53c0,.23.07.42.2.57s.31.27.53.37.47.18.75.26c.28.08.56.15.86.23.29.07.58.16.86.26.28.1.53.22.75.36.22.14.4.32.53.54.13.21.2.48.2.79,0,.47-.12.86-.36,1.16-.24.3-.56.52-.98.66-.41.14-.9.21-1.44.21Z"/>
    <path class="cls-2" d="M162.53,187.08v-6.18h-2.43v-.69h5.68v.69h-2.45v6.18h-.79Z"/>
    <path class="cls-2" d="M166.84,187.08v-6.87h.79v6.87h-.79Z"/>
    <path class="cls-2" d="M171.13,187.08v-6.18h-2.43v-.69h5.68v.69h-2.45v6.18h-.79Z"/>
    <path class="cls-2" d="M178.2,187.2c-.57,0-1.07-.09-1.48-.28s-.73-.48-.95-.89c-.22-.41-.33-.94-.33-1.58v-4.25h.79v4.41c0,.63.17,1.11.52,1.42.34.31.83.47,1.45.47s1.13-.16,1.49-.47c.36-.31.54-.79.54-1.42v-4.41h.78v4.25c0,.65-.11,1.18-.34,1.58-.22.41-.54.7-.96.89s-.92.28-1.51.28Z"/>
    <path class="cls-2" d="M184.5,187.08v-6.18h-2.43v-.69h5.68v.69h-2.45v6.18h-.79Z"/>
    <path class="cls-2" d="M188.82,187.08v-6.87h5.26v.68h-4.47v2.32h4.03v.69h-4.03v2.49h4.53v.68h-5.32Z"/>
  </g>
  <g>
    <path class="cls-2" d="M107.4,15.78c-6.89,4.38-12.27,11.2-14.68,19.67-2.26,7.91-1.57,15.96,1.42,22.99-.88-3.55-.87-7.37.2-11.13,3.28-11.49,15.25-18.14,26.74-14.86,11.49,3.28,18.14,15.25,14.86,26.74-3.28,11.49-15.25,18.14-26.74,14.86-1.59-.45-3.08-1.07-4.48-1.84,3.39,2.64,7.33,4.68,11.71,5.93,18.34,5.24,37.45-5.39,42.69-23.73,5.24-18.34-5.39-37.45-23.73-42.69-9.62-2.75-19.45-1.13-27.39,3.68"/>
    <path class="cls-2" d="M108.02,15.4c-.21.13-.41.25-.62.38"/>
    <path class="cls-1" d="M107.97,15.43c-2.8-1.83-5.92-3.28-9.3-4.26-18.32-5.29-37.47,5.27-42.76,23.59-5.29,18.32,5.27,37.47,23.59,42.76,18.32,5.29,37.47-5.27,42.76-23.59,2.28-7.9,1.61-15.96-1.35-22.99.87,3.55.85,7.37-.24,11.13-3.32,11.48-15.31,18.09-26.79,14.78-11.48-3.32-18.09-15.31-14.78-26.79,3.32-11.48,15.31-18.09,26.79-14.78.51.15,1.01.31,1.5.49"/>
    <line class="cls-1" x1="121.18" y1="32.47" x2="121.6" y2="32.6"/>
    <polyline class="cls-2" points="121.16 32.46 121.7 32.63 120.91 30.94"/>
  </g>
</svg>