<?xml version="1.0" encoding="UTF-8"?>
<svg id="Layer_1" data-name="Layer 1" xmlns="http://www.w3.org/2000/svg" viewBox="0 0 365.5 129">
  <defs>
    <style>
      .cls-1 {
        fill: #812a54;
      }

      .cls-1, .cls-2 {
        stroke-width: 0px;
      }

      .cls-2 {
        fill: #aacef5;
      }
    </style>
  </defs>
  <g>
    <g>
      <path class="cls-2" d="M152.78,59.71c-1.71,0-3.16-.32-4.34-.95-1.18-.64-2.08-1.6-2.69-2.89-.61-1.29-.92-2.9-.92-4.85,0-2.9.7-5.08,2.1-6.52,1.4-1.44,3.37-2.17,5.9-2.17,1.45,0,2.73.23,3.83.7s1.97,1.16,2.59,2.08.94,2.09.94,3.51h-1.96c0-1.06-.22-1.93-.66-2.61-.44-.68-1.06-1.18-1.87-1.52-.81-.33-1.78-.5-2.9-.5-1.21,0-2.26.24-3.16.71-.9.47-1.59,1.21-2.08,2.21-.49,1-.73,2.31-.73,3.93v.51c0,1.58.25,2.86.73,3.84s1.18,1.7,2.08,2.15c.9.46,1.96.69,3.18.69,1.13,0,2.1-.17,2.91-.5.82-.33,1.44-.84,1.88-1.52.44-.68.66-1.55.66-2.61h1.91c0,1.44-.32,2.62-.97,3.55-.65.93-1.52,1.62-2.63,2.07-1.11.45-2.38.67-3.82.67Z"/>
      <path class="cls-2" d="M171.09,59.71c-1.73,0-3.22-.32-4.47-.97s-2.21-1.61-2.88-2.9c-.67-1.29-1-2.9-1-4.82s.33-3.55,1-4.83c.67-1.28,1.63-2.24,2.88-2.89s2.74-.97,4.47-.97,3.24.32,4.49.97c1.25.64,2.2,1.61,2.86,2.89.66,1.28.99,2.89.99,4.83s-.33,3.53-.99,4.82-1.62,2.26-2.86,2.9c-1.25.64-2.75.97-4.49.97ZM171.09,58.05c.96,0,1.84-.13,2.62-.38.78-.25,1.45-.66,2.01-1.21s.98-1.26,1.29-2.1c.3-.85.45-1.87.45-3.06v-.51c0-1.21-.15-2.24-.45-3.08-.3-.85-.73-1.55-1.29-2.1-.55-.55-1.22-.96-2.01-1.21-.78-.25-1.66-.38-2.62-.38s-1.83.13-2.61.38c-.77.25-1.44.66-1.99,1.21-.56.56-.98,1.26-1.29,2.1s-.45,1.88-.45,3.08v.51c0,1.19.15,2.21.45,3.06s.73,1.55,1.29,2.1c.55.55,1.22.96,1.99,1.21.78.25,1.64.38,2.61.38Z"/>
      <path class="cls-2" d="M183.01,59.42v-16.79h2.94l4.38,11.63c.1.28.2.58.29.89.1.32.19.62.28.91.09.29.16.53.21.72h.15c.07-.23.15-.5.25-.81.1-.31.19-.62.28-.92.09-.3.18-.57.26-.8l4.38-11.63h2.91v16.79h-1.93v-10.45c0-.41,0-.87.03-1.38.02-.51.03-1.02.04-1.5,0-.49.01-.87.01-1.13h-.17c-.07.25-.15.54-.26.87-.11.33-.21.67-.32,1.02s-.21.66-.31.95l-4.5,11.63h-1.57l-4.48-11.63c-.1-.26-.2-.55-.29-.86-.1-.31-.2-.64-.29-.98-.1-.34-.2-.68-.29-1h-.17c.02.33.03.73.04,1.22,0,.49.02.98.03,1.47,0,.49.01.93.01,1.32v10.45h-1.88Z"/>
      <path class="cls-2" d="M203.79,59.42v-16.79h2.94l4.38,11.63c.1.28.2.58.29.89.1.32.19.62.28.91.09.29.16.53.21.72h.15c.07-.23.15-.5.25-.81.1-.31.19-.62.28-.92.09-.3.18-.57.26-.8l4.38-11.63h2.91v16.79h-1.93v-10.45c0-.41,0-.87.03-1.38.02-.51.03-1.02.04-1.5,0-.49.01-.87.01-1.13h-.17c-.07.25-.15.54-.26.87-.11.33-.21.67-.32,1.02s-.21.66-.31.95l-4.5,11.63h-1.57l-4.48-11.63c-.1-.26-.2-.55-.29-.86-.1-.31-.2-.64-.29-.98-.1-.34-.2-.68-.29-1h-.17c.02.33.03.73.04,1.22,0,.49.02.98.03,1.47,0,.49.01.93.01,1.32v10.45h-1.88Z"/>
      <path class="cls-2" d="M231.27,59.71c-1.4,0-2.61-.22-3.61-.67s-1.78-1.17-2.31-2.17c-.54-1-.81-2.28-.81-3.87v-10.38h1.93v10.77c0,1.55.42,2.71,1.26,3.48.84.77,2.02,1.15,3.54,1.15s2.76-.38,3.63-1.15c.87-.77,1.31-1.92,1.31-3.48v-10.77h1.91v10.38c0,1.58-.27,2.87-.82,3.87-.55,1-1.33,1.72-2.35,2.17s-2.25.67-3.68.67Z"/>
      <path class="cls-2" d="M242.55,59.42v-16.79h1.88l8.59,11.6c.1.11.22.27.36.47.14.2.28.4.42.6s.26.39.35.55h.12v-13.22h1.88v16.79h-1.69l-8.76-11.85c-.11-.16-.29-.42-.54-.77-.24-.35-.46-.65-.64-.89h-.1v13.51h-1.88Z"/>
      <path class="cls-2" d="M260.59,59.42v-16.79h1.93v16.79h-1.93Z"/>
      <path class="cls-2" d="M274,59.71c-1.71,0-3.16-.32-4.34-.95-1.18-.64-2.08-1.6-2.69-2.89-.61-1.29-.92-2.9-.92-4.85,0-2.9.7-5.08,2.1-6.52,1.4-1.44,3.37-2.17,5.9-2.17,1.45,0,2.73.23,3.83.7s1.97,1.16,2.59,2.08.94,2.09.94,3.51h-1.96c0-1.06-.22-1.93-.66-2.61-.44-.68-1.06-1.18-1.87-1.52-.81-.33-1.78-.5-2.9-.5-1.21,0-2.26.24-3.16.71-.9.47-1.59,1.21-2.08,2.21-.49,1-.73,2.31-.73,3.93v.51c0,1.58.25,2.86.73,3.84s1.18,1.7,2.08,2.15c.9.46,1.96.69,3.18.69,1.13,0,2.1-.17,2.91-.5s1.44-.84,1.88-1.52c.44-.68.66-1.55.66-2.61h1.91c0,1.44-.32,2.62-.97,3.55-.65.93-1.52,1.62-2.63,2.07-1.11.45-2.38.67-3.82.67Z"/>
      <path class="cls-2" d="M282.84,59.42l6.68-16.79h2.59l6.71,16.79h-2.08l-1.76-4.43h-8.42l-1.74,4.43h-1.98ZM287.22,53.32h7.1l-2.2-5.6c-.05-.13-.12-.33-.22-.59-.1-.26-.21-.56-.33-.89-.12-.33-.25-.67-.37-1.02-.12-.34-.24-.65-.35-.93h-.17c-.1.31-.22.68-.38,1.1-.15.42-.31.84-.47,1.26-.15.42-.29.77-.4,1.06l-2.2,5.6Z"/>
      <path class="cls-2" d="M303.2,59.42v-15.1h-5.95v-1.69h13.88v1.69h-6v15.1h-1.93Z"/>
      <path class="cls-2" d="M313.75,59.42v-16.79h1.93v16.79h-1.93Z"/>
      <path class="cls-2" d="M327.55,59.71c-1.73,0-3.22-.32-4.47-.97s-2.21-1.61-2.88-2.9c-.67-1.29-1-2.9-1-4.82s.33-3.55,1-4.83c.67-1.28,1.63-2.24,2.88-2.89s2.74-.97,4.47-.97,3.24.32,4.49.97c1.25.64,2.2,1.61,2.86,2.89s.99,2.89.99,4.83-.33,3.53-.99,4.82c-.66,1.29-1.62,2.26-2.86,2.9-1.25.64-2.75.97-4.49.97ZM327.55,58.05c.96,0,1.84-.13,2.62-.38.78-.25,1.45-.66,2.01-1.21s.98-1.26,1.29-2.1c.3-.85.45-1.87.45-3.06v-.51c0-1.21-.15-2.24-.45-3.08-.3-.85-.73-1.55-1.29-2.1-.55-.55-1.22-.96-2.01-1.21-.78-.25-1.66-.38-2.62-.38s-1.83.13-2.61.38c-.77.25-1.44.66-1.99,1.21-.56.56-.98,1.26-1.29,2.1s-.45,1.88-.45,3.08v.51c0,1.19.15,2.21.45,3.06s.73,1.55,1.29,2.1c.55.55,1.22.96,1.99,1.21.78.25,1.64.38,2.61.38Z"/>
      <path class="cls-2" d="M339.47,59.42v-16.79h1.88l8.59,11.6c.1.11.22.27.36.47.14.2.28.4.42.6s.26.39.35.55h.12v-13.22h1.88v16.79h-1.69l-8.76-11.85c-.11-.16-.29-.42-.54-.77-.24-.35-.46-.65-.64-.89h-.1v13.51h-1.88Z"/>
    </g>
    <g>
      <path class="cls-2" d="M151.17,86.37l-6.34-16.79h2.08l4.48,12.04c.1.26.2.56.32.89.11.33.23.66.34.98.11.32.21.61.29.87h.17c.08-.24.18-.53.29-.84.11-.32.23-.64.34-.98.11-.33.22-.63.32-.89l4.43-12.07h2.03l-6.36,16.79h-2.4Z"/>
      <path class="cls-2" d="M159.76,86.37l6.68-16.79h2.59l6.71,16.79h-2.08l-1.76-4.43h-8.42l-1.74,4.43h-1.98ZM164.14,80.28h7.1l-2.2-5.6c-.05-.13-.12-.33-.22-.59-.1-.26-.21-.56-.33-.89-.12-.33-.25-.67-.37-1.02-.12-.34-.24-.65-.35-.93h-.17c-.1.31-.22.68-.38,1.1-.15.42-.31.84-.47,1.26-.15.42-.29.77-.4,1.06l-2.2,5.6Z"/>
      <path class="cls-2" d="M178.16,86.37v-16.79h1.93v15.1h8.3v1.69h-10.23Z"/>
      <path class="cls-2" d="M196.74,86.67c-1.4,0-2.61-.22-3.61-.67-1-.45-1.78-1.17-2.31-2.17-.54-1-.81-2.28-.81-3.87v-10.38h1.93v10.77c0,1.55.42,2.71,1.26,3.48.84.77,2.02,1.15,3.54,1.15s2.76-.38,3.63-1.15c.87-.77,1.31-1.92,1.31-3.48v-10.77h1.91v10.38c0,1.58-.27,2.87-.82,3.87-.55,1-1.33,1.72-2.35,2.17s-2.25.67-3.68.67Z"/>
      <path class="cls-2" d="M208.02,86.37v-16.79h12.85v1.66h-10.92v5.68h9.84v1.69h-9.84v6.09h11.06v1.66h-13Z"/>
      <path class="cls-2" d="M229.87,86.37v-16.79h1.93v16.79h-1.93Z"/>
      <path class="cls-2" d="M236.24,86.37v-16.79h1.88l8.59,11.6c.1.11.22.27.36.47.14.2.28.4.42.6s.26.39.35.55h.12v-13.22h1.88v16.79h-1.69l-8.76-11.85c-.11-.16-.29-.42-.54-.77-.24-.35-.46-.65-.64-.89h-.1v13.51h-1.88Z"/>
      <path class="cls-2" d="M260.39,86.67c-.9,0-1.77-.08-2.62-.25-.85-.16-1.6-.44-2.25-.83-.65-.39-1.17-.91-1.54-1.54-.37-.64-.56-1.43-.56-2.37v-.23c0-.07,0-.15.03-.23h1.93c0,.07,0,.16-.01.27,0,.11-.01.21-.01.29,0,.72.22,1.32.65,1.8.43.48,1.02.84,1.76,1.08.74.24,1.58.36,2.51.36.31,0,.68-.02,1.11-.06.43-.04.87-.12,1.32-.24.45-.12.86-.29,1.24-.51.37-.22.68-.51.92-.86.24-.35.36-.79.36-1.31,0-.6-.16-1.1-.49-1.49-.33-.39-.75-.71-1.28-.97-.53-.25-1.14-.48-1.82-.67-.69-.2-1.39-.38-2.1-.56-.72-.18-1.42-.38-2.09-.61-.68-.23-1.29-.51-1.82-.86s-.97-.77-1.28-1.29c-.32-.51-.48-1.15-.48-1.9,0-.65.13-1.25.39-1.79s.66-1,1.2-1.38c.54-.38,1.22-.68,2.06-.89s1.82-.32,2.96-.32c.87,0,1.67.09,2.42.27.75.18,1.41.46,1.98.84.57.38,1.02.87,1.33,1.44.32.58.48,1.28.48,2.09v.29h-1.91v-.42c0-.6-.19-1.11-.56-1.53-.38-.42-.88-.74-1.51-.98s-1.34-.36-2.14-.36c-1.09,0-1.99.11-2.69.33-.7.22-1.22.52-1.57.91s-.51.81-.51,1.29c0,.55.16,1.01.49,1.38s.76.67,1.3.91,1.15.45,1.82.64c.68.19,1.38.37,2.09.55.72.18,1.41.39,2.09.62.68.24,1.29.53,1.84.88.55.35.98.79,1.3,1.31.32.52.48,1.17.48,1.93,0,1.16-.29,2.1-.87,2.84-.58.73-1.38,1.27-2.39,1.62-1.01.34-2.19.51-3.52.51Z"/>
      <path class="cls-2" d="M274.91,86.37v-15.1h-5.95v-1.69h13.88v1.69h-6v15.1h-1.93Z"/>
      <path class="cls-2" d="M285.46,86.37v-16.79h1.93v16.79h-1.93Z"/>
      <path class="cls-2" d="M295.93,86.37v-15.1h-5.95v-1.69h13.88v1.69h-6v15.1h-1.93Z"/>
      <path class="cls-2" d="M313.19,86.67c-1.4,0-2.61-.22-3.61-.67-1-.45-1.78-1.17-2.31-2.17-.54-1-.81-2.28-.81-3.87v-10.38h1.93v10.77c0,1.55.42,2.71,1.26,3.48.84.77,2.02,1.15,3.54,1.15s2.76-.38,3.63-1.15c.87-.77,1.31-1.92,1.31-3.48v-10.77h1.91v10.38c0,1.58-.27,2.87-.82,3.87-.55,1-1.33,1.72-2.35,2.17-1.02.45-2.25.67-3.68.67Z"/>
      <path class="cls-2" d="M328.58,86.37v-15.1h-5.95v-1.69h13.88v1.69h-6v15.1h-1.93Z"/>
      <path class="cls-2" d="M339.13,86.37v-16.79h12.85v1.66h-10.92v5.68h9.84v1.69h-9.84v6.09h11.06v1.66h-13Z"/>
    </g>
  </g>
  <g>
    <path class="cls-2" d="M73.21,31.32c-7.93,5.03-14.11,12.88-16.89,22.62-2.6,9.1-1.8,18.36,1.64,26.43-1.01-4.08-1-8.47.23-12.8,3.77-13.21,17.54-20.86,30.75-17.09,13.21,3.77,20.86,17.54,17.09,30.75-3.77,13.21-17.54,20.86-30.75,17.09-1.83-.52-3.55-1.24-5.15-2.11,3.9,3.03,8.43,5.38,13.47,6.82,21.09,6.02,43.07-6.19,49.09-27.28,6.02-21.09-6.19-43.07-27.28-49.09-11.06-3.16-22.37-1.3-31.49,4.23"/>
    <path class="cls-2" d="M73.92,30.87c-.24.14-.48.29-.71.44"/>
    <path class="cls-1" d="M73.87,30.91c-3.22-2.1-6.81-3.77-10.7-4.9-21.07-6.09-43.09,6.06-49.18,27.13-6.09,21.07,6.06,43.09,27.13,49.18s43.09-6.06,49.18-27.13c2.63-9.09,1.86-18.35-1.55-26.44,1,4.08.98,8.47-.27,12.8-3.81,13.2-17.6,20.81-30.8,16.99-13.2-3.81-20.81-17.6-16.99-30.8,3.81-13.2,17.6-20.81,30.8-16.99.59.17,1.16.36,1.73.57"/>
    <line class="cls-1" x1="89.06" y1="50.51" x2="89.55" y2="50.65"/>
    <polyline class="cls-2" points="89.03 50.5 89.65 50.69 88.75 48.75"/>
  </g>
</svg>