<svg width="2183" height="1853" viewBox="0 0 2183 1853" fill="none" xmlns="http://www.w3.org/2000/svg">
<path d="M889.287 464.33C809.07 582.35 770.282 729.129 790.317 881.738C808.999 1024.33 876.06 1148.64 972.751 1240.41C934.035 1189.61 907.671 1128.33 898.682 1060.52C871.503 853.544 1017.34 663.732 1224.32 636.553C1431.29 609.374 1621.11 755.213 1648.28 962.188C1675.46 1169.16 1529.62 1358.98 1322.65 1386.16C1293.99 1389.95 1265.66 1390.3 1238.09 1387.82C1310.77 1406.53 1388.13 1411.95 1467.11 1401.61C1797.55 1358.23 2030.35 1055.26 1986.98 724.816C1943.6 394.37 1640.63 161.571 1310.19 204.947C1136.88 227.652 990.386 321.871 896.592 454.047" fill="#AACEF5"/>
<path d="M896.47 453.769C893.969 457.171 891.528 460.711 889.226 464.192Z" fill="#AACEF5"/>
<path d="M896.016 454.628C838.434 444.783 778.289 443.169 717.22 450.895C386.63 493.175 152.912 795.548 195.191 1126.14C237.47 1456.73 539.843 1690.45 870.433 1648.17C1201.02 1605.89 1434.74 1303.52 1392.46 972.925C1374.26 830.286 1307.62 705.803 1211.22 613.574C1249.8 664.433 1276.02 725.773 1284.73 793.702C1311.3 1000.78 1164.94 1190.15 957.798 1216.58C750.661 1243 561.345 1096.78 534.924 889.64C508.363 682.563 654.723 493.187 861.86 466.765C871.114 465.574 880.21 464.782 889.427 464.27" fill="#812A54"/>
<path d="M1225.69 636.288L1235.49 635.194L1211.22 613.574" fill="#AACEF5"/>
</svg>
