<svg width="1852" height="1219" viewBox="0 0 1852 1219" fill="none" xmlns="http://www.w3.org/2000/svg">
<g opacity="0.2">
<path d="M924.476 105.15C803.973 181.585 710.063 300.873 667.818 448.88C628.309 587.163 640.466 727.876 692.74 850.507C677.392 788.508 677.544 721.798 696.235 656C753.523 455.263 962.77 339.014 1163.51 396.303C1364.24 453.591 1480.49 662.838 1423.2 863.575C1365.92 1064.31 1156.67 1180.56 955.932 1123.27C928.123 1115.37 901.987 1104.43 877.673 1091.21C936.937 1137.25 1005.77 1172.96 1082.36 1194.85C1402.84 1286.32 1736.85 1100.78 1828.33 780.302C1919.81 459.821 1734.26 125.816 1413.78 34.3372C1245.72 -13.6817 1073.85 14.5826 935.265 98.6157" fill="#AACEF5"/>
<path d="M934.506 98.9191C885.575 67.0078 831.022 41.6307 771.91 24.4594C451.733 -68.0834 117.12 116.546 24.5775 436.723C-67.9652 756.9 116.664 1091.51 436.841 1184.06C757.018 1276.6 1091.63 1091.97 1184.17 771.792C1224.14 633.661 1212.44 492.948 1160.62 370.013C1175.82 432.012 1175.51 498.722 1156.52 564.52C1098.62 765.106 889.07 880.746 688.485 822.698C487.899 764.65 372.259 555.251 430.307 354.665C488.203 154.08 697.754 38.4396 898.34 96.4878C907.305 99.0711 915.967 101.958 924.628 105.149" fill="#812A54"/>
<path d="M1164.87 396.606L1174.3 399.493L1160.62 370.013" fill="#AACEF5"/>
</g>
</svg>
