<?xml version="1.0" encoding="UTF-8"?>
<svg id="Layer_1" data-name="Layer 1" xmlns="http://www.w3.org/2000/svg" viewBox="0 0 142 140">
  <defs>
    <style>
      .cls-1 {
        fill: #812a54;
      }

      .cls-1, .cls-2 {
        stroke-width: 0px;
      }

      .cls-2 {
        fill: #aacef5;
      }
    </style>
  </defs>
  <path class="cls-2" d="M70.88,36.35c-8.04,5.1-14.3,13.06-17.12,22.93-2.63,9.22-1.83,18.61,1.66,26.8-1.03-4.14-1.02-8.59.24-12.98,3.83-13.4,17.79-21.15,31.18-17.33,13.4,3.83,21.15,17.79,17.33,31.18-3.83,13.4-17.79,21.15-31.18,17.33-1.85-.53-3.6-1.25-5.22-2.14,3.95,3.07,8.55,5.46,13.66,6.92,21.39,6.11,43.67-6.28,49.78-27.67,6.11-21.39-6.28-43.67-27.67-49.78-11.22-3.2-22.69-1.32-31.94,4.29"/>
  <path class="cls-2" d="M71.6,35.9c-.24.15-.48.3-.72.45"/>
  <path class="cls-1" d="M71.55,35.94c-3.27-2.13-6.9-3.83-10.85-4.97-21.37-6.17-43.69,6.14-49.87,27.51-6.17,21.37,6.14,43.69,27.51,49.87,21.37,6.17,43.69-6.14,49.87-27.51,2.66-9.22,1.88-18.61-1.58-26.81,1.01,4.14.99,8.59-.28,12.98-3.87,13.38-17.85,21.1-31.24,17.23-13.38-3.87-21.1-17.85-17.23-31.24,3.87-13.38,17.85-21.1,31.24-17.23.6.17,1.18.36,1.75.58"/>
  <line class="cls-1" x1="86.96" y1="55.81" x2="87.45" y2="55.96"/>
  <polyline class="cls-2" points="86.93 55.8 87.55 55.99 86.63 54.03"/>
</svg>