<svg width="1604" height="1055" viewBox="0 0 1604 1055" fill="none" xmlns="http://www.w3.org/2000/svg">
<path d="M800.412 90.6045C696.001 156.832 614.632 260.189 578.029 388.431C543.796 508.247 554.329 630.169 599.622 736.423C586.324 682.703 586.456 624.902 602.651 567.891C652.288 393.961 833.592 293.237 1007.52 342.875C1181.45 392.513 1282.18 573.816 1232.54 747.746C1182.9 921.676 1001.6 1022.4 827.667 972.762C803.572 965.915 780.925 956.436 759.859 944.981C811.208 984.875 870.853 1015.82 937.212 1034.78C1214.89 1114.04 1504.29 953.276 1583.56 675.594C1662.82 397.911 1502.06 108.511 1224.37 29.2484C1078.75 -12.3578 929.839 12.1319 809.76 84.9428" fill="#AACEF5" fill-opacity="0.15"/>
<path d="M809.759 84.6797C806.599 86.523 803.439 88.498 800.411 90.4729Z" fill="#AACEF5" fill-opacity="0.15"/>
<path d="M809.102 85.2059C766.706 57.5562 719.438 35.5681 668.22 20.6899C390.801 -59.4943 100.874 100.479 20.6899 377.898C-59.4943 655.317 100.479 945.244 377.898 1025.43C655.317 1105.61 945.244 945.639 1025.43 668.22C1060.06 548.536 1049.92 426.614 1005.02 320.097C1018.19 373.816 1017.92 431.617 1001.46 488.628C951.3 662.427 769.734 762.624 595.936 712.328C422.137 662.032 321.94 480.597 372.236 306.799C422.401 133 603.967 32.8031 777.765 83.0993C785.534 85.3376 793.039 87.8392 800.544 90.6042" fill="#812A54" fill-opacity="0.15"/>
<path d="M1008.71 343.138L1016.87 345.64L1005.02 320.097" fill="#AACEF5" fill-opacity="0.15"/>
</svg>
