<?xml version="1.0" encoding="UTF-8"?>
<svg id="Layer_1" data-name="Layer 1" xmlns="http://www.w3.org/2000/svg" viewBox="0 0 691 177">
  <defs>
    <style>
      .cls-1 {
        fill: #aacef5;
        stroke-width: 0px;
      }
    </style>
  </defs>
  <g>
    <path class="cls-1" d="M33.36,72.95c-5.56,0-10.26-1.03-14.1-3.1-3.84-2.07-6.75-5.19-8.74-9.37-1.99-4.18-2.98-9.43-2.98-15.73,0-9.43,2.28-16.48,6.83-21.17,4.56-4.69,10.94-7.03,19.15-7.03,4.71,0,8.86.76,12.43,2.27,3.57,1.51,6.38,3.76,8.42,6.75,2.04,2.99,3.06,6.79,3.06,11.4h-6.36c0-3.44-.72-6.26-2.15-8.46-1.43-2.2-3.45-3.84-6.08-4.93-2.62-1.08-5.76-1.63-9.41-1.63-3.92,0-7.34.77-10.25,2.3-2.91,1.54-5.16,3.93-6.75,7.19-1.59,3.26-2.38,7.51-2.38,12.75v1.67c0,5.14.8,9.29,2.38,12.47,1.59,3.18,3.84,5.51,6.75,6.99,2.91,1.48,6.36,2.22,10.33,2.22,3.66,0,6.81-.54,9.45-1.63,2.65-1.09,4.69-2.73,6.12-4.93,1.43-2.2,2.14-5.02,2.14-8.46h6.2c0,4.66-1.05,8.5-3.14,11.52-2.09,3.02-4.94,5.26-8.54,6.71-3.6,1.46-7.74,2.18-12.4,2.18Z"/>
    <path class="cls-1" d="M92.77,72.95c-5.61,0-10.45-1.05-14.5-3.14-4.05-2.09-7.16-5.23-9.33-9.41-2.17-4.18-3.26-9.4-3.26-15.65s1.09-11.53,3.26-15.69c2.17-4.16,5.29-7.28,9.33-9.37,4.05-2.09,8.88-3.14,14.5-3.14s10.52,1.05,14.58,3.14c4.05,2.09,7.15,5.22,9.29,9.37,2.15,4.16,3.22,9.39,3.22,15.69s-1.07,11.47-3.22,15.65c-2.15,4.18-5.24,7.32-9.29,9.41-4.05,2.09-8.91,3.14-14.58,3.14ZM92.77,67.55c3.12,0,5.96-.41,8.5-1.23,2.54-.82,4.71-2.13,6.51-3.93,1.8-1.8,3.19-4.08,4.17-6.83.98-2.75,1.47-6.06,1.47-9.93v-1.67c0-3.92-.49-7.26-1.47-10.01-.98-2.75-2.37-5.03-4.17-6.83-1.8-1.8-3.97-3.11-6.51-3.93-2.54-.82-5.38-1.23-8.5-1.23s-5.94.41-8.46,1.23c-2.51.82-4.67,2.13-6.47,3.93-1.8,1.8-3.2,4.08-4.17,6.83-.98,2.75-1.47,6.09-1.47,10.01v1.67c0,3.87.49,7.18,1.47,9.93s2.37,5.03,4.17,6.83c1.8,1.8,3.96,3.11,6.47,3.93,2.52.82,5.34,1.23,8.46,1.23Z"/>
    <path class="cls-1" d="M131.46,72V17.51h9.53l14.22,37.73c.32.9.64,1.87.96,2.9.32,1.03.62,2.01.91,2.94.29.93.52,1.71.68,2.34h.48c.21-.74.48-1.61.8-2.62.32-1,.62-2,.91-2.98.29-.98.57-1.84.84-2.58l14.22-37.73h9.45v54.49h-6.28v-33.92c0-1.32.03-2.82.08-4.49.05-1.67.09-3.3.12-4.88.03-1.59.04-2.81.04-3.66h-.56c-.21.8-.49,1.74-.83,2.82-.35,1.09-.69,2.18-1.03,3.3-.35,1.11-.68,2.14-.99,3.1l-14.61,37.73h-5.08l-14.54-37.73c-.32-.85-.64-1.77-.95-2.78-.32-1.01-.64-2.07-.96-3.18-.32-1.11-.64-2.2-.95-3.26h-.56c.05,1.06.09,2.38.12,3.97.03,1.59.06,3.18.08,4.77.03,1.59.04,3.02.04,4.29v33.92h-6.11Z"/>
    <path class="cls-1" d="M198.9,72V17.51h9.53l14.22,37.73c.32.9.64,1.87.96,2.9.32,1.03.62,2.01.91,2.94.29.93.52,1.71.68,2.34h.48c.21-.74.48-1.61.8-2.62.32-1,.62-2,.91-2.98.29-.98.57-1.84.84-2.58l14.22-37.73h9.45v54.49h-6.28v-33.92c0-1.32.03-2.82.08-4.49.05-1.67.09-3.3.12-4.88.03-1.59.04-2.81.04-3.66h-.56c-.21.8-.49,1.74-.83,2.82-.35,1.09-.69,2.18-1.03,3.3s-.68,2.14-.99,3.1l-14.61,37.73h-5.08l-14.54-37.73c-.32-.85-.64-1.77-.95-2.78-.32-1.01-.64-2.07-.96-3.18-.32-1.11-.64-2.2-.95-3.26h-.56c.05,1.06.09,2.38.12,3.97.03,1.59.06,3.18.08,4.77.03,1.59.04,3.02.04,4.29v33.92h-6.11Z"/>
    <path class="cls-1" d="M288.11,72.95c-4.55,0-8.46-.73-11.71-2.18s-5.76-3.8-7.51-7.03c-1.75-3.23-2.62-7.41-2.62-12.55V17.51h6.28v34.95c0,5.03,1.36,8.79,4.09,11.28,2.73,2.49,6.55,3.73,11.48,3.73s8.96-1.24,11.8-3.73c2.83-2.49,4.25-6.25,4.25-11.28V17.51h6.2v33.68c0,5.14-.88,9.32-2.66,12.55-1.78,3.23-4.32,5.57-7.63,7.03-3.31,1.46-7.3,2.18-11.96,2.18Z"/>
    <path class="cls-1" d="M324.73,72V17.51h6.11l27.89,37.65c.32.37.7.87,1.15,1.51.44.64.9,1.29,1.35,1.95s.83,1.26,1.15,1.79h.4V17.51h6.12v54.49h-5.48l-28.44-38.45c-.37-.53-.95-1.37-1.75-2.5-.79-1.14-1.48-2.1-2.06-2.9h-.32v43.85h-6.11Z"/>
    <path class="cls-1" d="M383.27,72V17.51h6.27v54.49h-6.27Z"/>
    <path class="cls-1" d="M426.8,72.95c-5.56,0-10.26-1.03-14.1-3.1-3.84-2.07-6.75-5.19-8.74-9.37-1.99-4.18-2.98-9.43-2.98-15.73,0-9.43,2.28-16.48,6.83-21.17,4.56-4.69,10.94-7.03,19.15-7.03,4.71,0,8.86.76,12.43,2.27,3.57,1.51,6.38,3.76,8.42,6.75,2.04,2.99,3.06,6.79,3.06,11.4h-6.36c0-3.44-.72-6.26-2.15-8.46-1.43-2.2-3.45-3.84-6.08-4.93-2.62-1.08-5.76-1.63-9.41-1.63-3.92,0-7.34.77-10.25,2.3-2.91,1.54-5.16,3.93-6.75,7.19-1.59,3.26-2.38,7.51-2.38,12.75v1.67c0,5.14.8,9.29,2.38,12.47,1.59,3.18,3.84,5.51,6.75,6.99,2.91,1.48,6.36,2.22,10.33,2.22,3.66,0,6.81-.54,9.45-1.63,2.65-1.09,4.69-2.73,6.12-4.93,1.43-2.2,2.14-5.02,2.14-8.46h6.2c0,4.66-1.05,8.5-3.14,11.52-2.09,3.02-4.94,5.26-8.54,6.71-3.6,1.46-7.74,2.18-12.4,2.18Z"/>
    <path class="cls-1" d="M455.48,72l21.68-54.49h8.42l21.77,54.49h-6.75l-5.72-14.38h-27.32l-5.64,14.38h-6.43ZM469.69,52.22h23.04l-7.15-18.19c-.16-.42-.39-1.06-.71-1.91-.32-.85-.67-1.82-1.07-2.9-.4-1.08-.8-2.18-1.19-3.3-.39-1.11-.78-2.12-1.15-3.02h-.56c-.32,1.01-.73,2.2-1.23,3.57-.5,1.38-1.01,2.74-1.51,4.09-.5,1.35-.94,2.5-1.31,3.45l-7.15,18.19Z"/>
    <path class="cls-1" d="M521.56,72V22.99h-19.3v-5.48h45.04v5.48h-19.46v49.01h-6.28Z"/>
    <path class="cls-1" d="M555.81,72V17.51h6.27v54.49h-6.27Z"/>
    <path class="cls-1" d="M600.61,72.95c-5.61,0-10.45-1.05-14.5-3.14-4.05-2.09-7.16-5.23-9.33-9.41-2.17-4.18-3.26-9.4-3.26-15.65s1.09-11.53,3.26-15.69c2.17-4.16,5.29-7.28,9.33-9.37,4.05-2.09,8.88-3.14,14.5-3.14s10.52,1.05,14.58,3.14c4.05,2.09,7.15,5.22,9.29,9.37,2.15,4.16,3.22,9.39,3.22,15.69s-1.07,11.47-3.22,15.65c-2.15,4.18-5.24,7.32-9.29,9.41-4.05,2.09-8.91,3.14-14.58,3.14ZM600.61,67.55c3.12,0,5.96-.41,8.5-1.23,2.54-.82,4.71-2.13,6.51-3.93,1.8-1.8,3.19-4.08,4.17-6.83.98-2.75,1.47-6.06,1.47-9.93v-1.67c0-3.92-.49-7.26-1.47-10.01-.98-2.75-2.37-5.03-4.17-6.83-1.8-1.8-3.97-3.11-6.51-3.93-2.54-.82-5.38-1.23-8.5-1.23s-5.94.41-8.46,1.23c-2.51.82-4.67,2.13-6.47,3.93-1.8,1.8-3.2,4.08-4.17,6.83-.98,2.75-1.47,6.09-1.47,10.01v1.67c0,3.87.49,7.18,1.47,9.93.98,2.75,2.37,5.03,4.17,6.83,1.8,1.8,3.96,3.11,6.47,3.93,2.52.82,5.34,1.23,8.46,1.23Z"/>
    <path class="cls-1" d="M639.3,72V17.51h6.11l27.89,37.65c.32.37.7.87,1.15,1.51.44.64.9,1.29,1.35,1.95s.83,1.26,1.15,1.79h.4V17.51h6.12v54.49h-5.48l-28.44-38.45c-.37-.53-.95-1.37-1.75-2.5-.79-1.14-1.48-2.1-2.06-2.9h-.32v43.85h-6.11Z"/>
  </g>
  <g>
    <path class="cls-1" d="M28.11,159.49L7.54,105h6.75l14.54,39.08c.32.85.66,1.82,1.03,2.9.37,1.09.74,2.14,1.11,3.18.37,1.03.69,1.98.95,2.82h.56c.26-.79.58-1.71.95-2.74.37-1.03.74-2.09,1.11-3.18.37-1.08.71-2.05,1.03-2.9l14.38-39.16h6.59l-20.66,54.49h-7.78Z"/>
    <path class="cls-1" d="M55.99,159.49l21.68-54.49h8.42l21.77,54.49h-6.75l-5.72-14.38h-27.32l-5.64,14.38h-6.43ZM70.21,139.71h23.04l-7.15-18.19c-.16-.42-.39-1.06-.71-1.91-.32-.85-.67-1.82-1.07-2.9-.4-1.08-.8-2.18-1.19-3.3-.39-1.11-.78-2.12-1.15-3.02h-.56c-.32,1.01-.73,2.2-1.23,3.57-.5,1.38-1.01,2.74-1.51,4.09-.5,1.35-.94,2.5-1.31,3.45l-7.15,18.19Z"/>
    <path class="cls-1" d="M115.73,159.49v-54.49h6.27v49.01h26.93v5.48h-33.2Z"/>
    <path class="cls-1" d="M176.02,160.45c-4.55,0-8.46-.73-11.71-2.18-3.26-1.46-5.76-3.8-7.51-7.03-1.75-3.23-2.62-7.41-2.62-12.55v-33.68h6.28v34.95c0,5.03,1.36,8.79,4.09,11.28,2.73,2.49,6.55,3.73,11.48,3.73s8.96-1.24,11.8-3.73c2.83-2.49,4.25-6.25,4.25-11.28v-34.95h6.2v33.68c0,5.14-.88,9.32-2.66,12.55-1.78,3.23-4.32,5.57-7.63,7.03s-7.3,2.18-11.96,2.18Z"/>
    <path class="cls-1" d="M212.64,159.49v-54.49h41.7v5.4h-35.43v18.43h31.93v5.48h-31.93v19.78h35.91v5.4h-42.18Z"/>
    <path class="cls-1" d="M283.57,159.49v-54.49h6.27v54.49h-6.27Z"/>
    <path class="cls-1" d="M304.23,159.49v-54.49h6.11l27.89,37.65c.32.37.7.87,1.15,1.51.44.64.9,1.29,1.35,1.95.45.66.83,1.26,1.15,1.79h.4v-42.9h6.12v54.49h-5.48l-28.44-38.45c-.37-.53-.95-1.37-1.75-2.5-.79-1.14-1.48-2.1-2.06-2.9h-.32v43.85h-6.11Z"/>
    <path class="cls-1" d="M382.63,160.45c-2.92,0-5.75-.27-8.5-.8-2.75-.53-5.19-1.43-7.31-2.7-2.12-1.27-3.79-2.94-5.01-5-1.22-2.07-1.83-4.63-1.83-7.71v-.76c0-.24.03-.49.08-.76h6.27c0,.21-.02.5-.04.87-.03.37-.04.69-.04.95,0,2.33.7,4.28,2.1,5.84,1.4,1.56,3.3,2.73,5.72,3.49,2.4.77,5.12,1.15,8.14,1.15,1,0,2.21-.07,3.61-.2,1.4-.13,2.83-.4,4.29-.79,1.46-.4,2.79-.95,4.01-1.67,1.22-.72,2.21-1.64,2.98-2.78.77-1.14,1.15-2.55,1.15-4.25,0-1.96-.53-3.58-1.59-4.85-1.06-1.27-2.45-2.32-4.17-3.14-1.72-.82-3.69-1.55-5.92-2.18-2.22-.64-4.5-1.24-6.83-1.83-2.33-.58-4.6-1.24-6.79-1.99-2.2-.74-4.17-1.67-5.92-2.78-1.75-1.11-3.14-2.5-4.17-4.17-1.03-1.67-1.55-3.72-1.55-6.16,0-2.12.42-4.05,1.27-5.8.85-1.75,2.15-3.24,3.89-4.49,1.75-1.24,3.97-2.21,6.67-2.9,2.7-.69,5.91-1.03,9.61-1.03,2.81,0,5.43.29,7.87.87,2.44.58,4.58,1.5,6.43,2.74,1.86,1.25,3.3,2.81,4.33,4.69,1.03,1.88,1.55,4.14,1.55,6.79v.95h-6.2v-1.35c0-1.96-.61-3.61-1.83-4.96-1.22-1.35-2.85-2.41-4.89-3.18-2.04-.77-4.35-1.15-6.95-1.15-3.55,0-6.46.36-8.74,1.07-2.28.72-3.97,1.7-5.08,2.94-1.11,1.24-1.67,2.63-1.67,4.17,0,1.8.53,3.29,1.59,4.49,1.06,1.19,2.46,2.17,4.21,2.94,1.75.77,3.72,1.46,5.92,2.07,2.2.61,4.46,1.2,6.8,1.79,2.33.58,4.59,1.26,6.79,2.02,2.2.77,4.18,1.72,5.96,2.86,1.77,1.14,3.18,2.55,4.21,4.25,1.03,1.69,1.55,3.79,1.55,6.27,0,3.76-.94,6.83-2.82,9.22-1.88,2.38-4.46,4.13-7.74,5.24-3.28,1.11-7.1,1.67-11.44,1.67Z"/>
    <path class="cls-1" d="M429.73,159.49v-49.01h-19.3v-5.48h45.04v5.48h-19.46v49.01h-6.28Z"/>
    <path class="cls-1" d="M463.97,159.49v-54.49h6.27v54.49h-6.27Z"/>
    <path class="cls-1" d="M497.97,159.49v-49.01h-19.3v-5.48h45.04v5.48h-19.46v49.01h-6.28Z"/>
    <path class="cls-1" d="M553.97,160.45c-4.55,0-8.46-.73-11.71-2.18-3.26-1.46-5.76-3.8-7.51-7.03-1.75-3.23-2.62-7.41-2.62-12.55v-33.68h6.28v34.95c0,5.03,1.36,8.79,4.09,11.28,2.73,2.49,6.55,3.73,11.48,3.73s8.96-1.24,11.8-3.73c2.83-2.49,4.25-6.25,4.25-11.28v-34.95h6.2v33.68c0,5.14-.88,9.32-2.66,12.55-1.78,3.23-4.32,5.57-7.63,7.03-3.31,1.46-7.3,2.18-11.96,2.18Z"/>
    <path class="cls-1" d="M603.94,159.49v-49.01h-19.3v-5.48h45.04v5.48h-19.46v49.01h-6.28Z"/>
    <path class="cls-1" d="M638.18,159.49v-54.49h41.7v5.4h-35.43v18.43h31.93v5.48h-31.93v19.78h35.91v5.4h-42.18Z"/>
  </g>
</svg>